<svg width="520" height="150" viewBox="0 0 520 150" fill="none" xmlns="http://www.w3.org/2000/svg">
  <rect width="520" height="150" rx="20" fill="white"/>
  <g transform="translate(22 26)">
    <path d="M10 51L54 16L98 51" stroke="#062044" stroke-width="8" stroke-linecap="round" stroke-linejoin="round"/>
    <path d="M111 51L155 16L199 51" stroke="#009A9A" stroke-width="8" stroke-linecap="round" stroke-linejoin="round"/>
    <path d="M22 51V93H86V51" stroke="#062044" stroke-width="8" stroke-linecap="round" stroke-linejoin="round"/>
    <path d="M123 51V93H187V51" stroke="#009A9A" stroke-width="8" stroke-linecap="round" stroke-linejoin="round"/>
    <path d="M86 94H123" stroke="#062044" stroke-width="8" stroke-linecap="round"/>
    <path d="M103 92V67C103 58.7 109.7 52 118 52C126.3 52 133 58.7 133 67V92" fill="#062044"/>
    <path d="M118 92V52C126.3 52 133 58.7 133 67V92H118Z" fill="#009A9A"/>
    <path d="M107 73L117 83L135 60" stroke="white" stroke-width="8" stroke-linecap="round" stroke-linejoin="round"/>
    <circle cx="104" cy="15" r="10" fill="#E2A143"/>
    <path d="M54 62H70M54 77H70M143 62H159M143 77H159" stroke="#062044" stroke-width="7" stroke-linecap="round"/>
  </g>
  <text x="242" y="69" fill="#062044" font-family="Inter, ui-sans-serif, system-ui, -apple-system, BlinkMacSystemFont, Segoe UI, sans-serif" font-size="36" font-weight="850" letter-spacing="-1">Vacation</text>
  <text x="387" y="69" fill="#009A9A" font-family="Inter, ui-sans-serif, system-ui, -apple-system, BlinkMacSystemFont, Segoe UI, sans-serif" font-size="36" font-weight="850" letter-spacing="-1">Rental</text>
  <text x="242" y="111" fill="#062044" font-family="Inter, ui-sans-serif, system-ui, -apple-system, BlinkMacSystemFont, Segoe UI, sans-serif" font-size="36" font-weight="850" letter-spacing="-1">Expertz</text>
</svg>
