<svg width="320" height="150" viewBox="0 0 320 150" fill="none" xmlns="http://www.w3.org/2000/svg">
  <rect width="320" height="150" rx="18" fill="white"/>
  <g transform="translate(20 34)">
    <path d="M2 43L35 15L68 43" stroke="#062044" stroke-width="7" stroke-linecap="round" stroke-linejoin="round"/>
    <path d="M72 43L105 15L138 43" stroke="#009A9A" stroke-width="7" stroke-linecap="round" stroke-linejoin="round"/>
    <path d="M11 43V79H59V43" stroke="#062044" stroke-width="7" stroke-linecap="round" stroke-linejoin="round"/>
    <path d="M81 43V79H129V43" stroke="#009A9A" stroke-width="7" stroke-linecap="round" stroke-linejoin="round"/>
    <path d="M59 80H81" stroke="#062044" stroke-width="7" stroke-linecap="round"/>
    <path d="M68 79V59C68 52.4 73.4 47 80 47C86.6 47 92 52.4 92 59V79" fill="#062044"/>
    <path d="M80 79V47C86.6 47 92 52.4 92 59V79H80Z" fill="#009A9A"/>
    <path d="M72 64L79 71L93 53" stroke="white" stroke-width="6" stroke-linecap="round" stroke-linejoin="round"/>
    <circle cx="70" cy="11" r="7" fill="#E2A143"/>
  </g>
  <text x="174" y="54" fill="#062044" font-family="Inter, ui-sans-serif, system-ui, -apple-system, BlinkMacSystemFont, Segoe UI, sans-serif" font-size="27" font-weight="850" letter-spacing="-0.7">Vacation</text>
  <text x="174" y="84" fill="#009A9A" font-family="Inter, ui-sans-serif, system-ui, -apple-system, BlinkMacSystemFont, Segoe UI, sans-serif" font-size="27" font-weight="850" letter-spacing="-0.7">Rental</text>
  <text x="174" y="114" fill="#062044" font-family="Inter, ui-sans-serif, system-ui, -apple-system, BlinkMacSystemFont, Segoe UI, sans-serif" font-size="27" font-weight="850" letter-spacing="-0.7">Expertz</text>
</svg>
